<?xml version="1.0" encoding="UTF-8"?>
<svg id="_レイヤー_2" data-name="レイヤー 2" xmlns="http://www.w3.org/2000/svg" viewBox="0 0 1920 1080">
  <defs>
    <style>
      .cls-1 {
        fill: #af8b68;
      }
    </style>
  </defs>
  <g id="_企画" data-name="企画">
    <rect class="cls-1" width="1920" height="1080"/>
    <g>
      <path d="M564.24,527.91c-.9,3.9-1.8,7.8-3,11.4,52.8,9.3,72.3,42.3,72.3,77.7,0,47.7-40.8,76.5-115.8,84.9-1.2-4.2-5.4-13.2-8.1-18,62.1-6,102-27.6,102-66.3v-2.1c-1.5-34.8-24.9-51.9-57-57.3-12.9,33.9-34.8,65.4-59.7,88.2,2.1,6.3,4.8,11.7,7.8,16.2l-17.7,11.1c-2.7-4.2-5.1-9.3-7.2-15-24,17.7-43.2,22.5-56.7,22.5-24,0-36.3-17.7-36.3-39.9,0-41.4,34.2-74.4,77.7-91.8-.6-15.6-.6-32.7-.3-50.4-50.7,0-56.1,0-66-.6l-.6-19.8c15.3.9,41.4.9,67.2.9.3-13.8.9-30.6,1.5-44.7l30,2.1c-.3,3-3.3,5.4-7.8,6-.9,11.1-1.5,24.9-2.4,36,32.7-.9,90-4.8,120.3-12.6l2.7,20.4c-31.8,7.8-89.7,10.8-123.9,11.7-.6,15.6-.9,30.6-.6,44.7,21-6.6,39.9-6.9,45-6.9,4.5,0,8.4,0,12.3.3,1.2-4.8,2.1-9.3,3-14.1l21.3,5.4ZM472.14,639.81c-4.8-18.6-7.5-42.3-8.7-70.2-32.7,14.4-58.2,39.3-58.2,68.4,0,17.7,9.9,23.7,20.7,23.1,14.1-.3,30.3-8.4,46.2-21.3ZM533.64,555.51c-4.8-.3-28.2-.9-50.7,7.2.6,24.3,2.7,45,6.9,61.8,18-18.3,34.2-42.6,43.8-69Z"/>
      <path d="M864.24,527.91c-.9,3.9-1.8,7.8-3,11.4,52.8,9.3,72.3,42.3,72.3,77.7,0,47.7-40.8,76.5-115.8,84.9-1.2-4.2-5.4-13.2-8.1-18,62.1-6,102-27.6,102-66.3v-2.1c-1.5-34.8-24.9-51.9-57-57.3-12.9,33.9-34.8,65.4-59.7,88.2,2.1,6.3,4.8,11.7,7.8,16.2l-17.7,11.1c-2.7-4.2-5.1-9.3-7.2-15-24,17.7-43.2,22.5-56.7,22.5-24,0-36.3-17.7-36.3-39.9,0-41.4,34.2-74.4,77.7-91.8-.6-15.6-.6-32.7-.3-50.4-50.7,0-56.1,0-66-.6l-.6-19.8c15.3.9,41.4.9,67.2.9.3-13.8.9-30.6,1.5-44.7l30,2.1c-.3,3-3.3,5.4-7.8,6-.9,11.1-1.5,24.9-2.4,36,32.7-.9,90-4.8,120.3-12.6l2.7,20.4c-31.8,7.8-89.7,10.8-123.9,11.7-.6,15.6-.9,30.6-.6,44.7,21-6.6,39.9-6.9,45-6.9,4.5,0,8.4,0,12.3.3,1.2-4.8,2.1-9.3,3-14.1l21.3,5.4ZM772.14,639.81c-4.8-18.6-7.5-42.3-8.7-70.2-32.7,14.4-58.2,39.3-58.2,68.4,0,17.7,9.9,23.7,20.7,23.1,14.1-.3,30.3-8.4,46.2-21.3ZM833.64,555.51c-4.8-.3-28.2-.9-50.7,7.2.6,24.3,2.7,45,6.9,61.8,18-18.3,34.2-42.6,43.8-69Z"/>
      <path d="M1164.24,527.91c-.9,3.9-1.8,7.8-3,11.4,52.8,9.3,72.3,42.3,72.3,77.7,0,47.7-40.8,76.5-115.8,84.9-1.2-4.2-5.4-13.2-8.1-18,62.1-6,102-27.6,102-66.3v-2.1c-1.5-34.8-24.9-51.9-57-57.3-12.9,33.9-34.8,65.4-59.7,88.2,2.1,6.3,4.8,11.7,7.8,16.2l-17.7,11.1c-2.7-4.2-5.1-9.3-7.2-15-24,17.7-43.2,22.5-56.7,22.5-24,0-36.3-17.7-36.3-39.9,0-41.4,34.2-74.4,77.7-91.8-.6-15.6-.6-32.7-.3-50.4-50.7,0-56.1,0-66-.6l-.6-19.8c15.3.9,41.4.9,67.2.9.3-13.8.9-30.6,1.5-44.7l30,2.1c-.3,3-3.3,5.4-7.8,6-.9,11.1-1.5,24.9-2.4,36,32.7-.9,90-4.8,120.3-12.6l2.7,20.4c-31.8,7.8-89.7,10.8-123.9,11.7-.6,15.6-.9,30.6-.6,44.7,21-6.6,39.9-6.9,45-6.9,4.5,0,8.4,0,12.3.3,1.2-4.8,2.1-9.3,3-14.1l21.3,5.4ZM1072.14,639.81c-4.8-18.6-7.5-42.3-8.7-70.2-32.7,14.4-58.2,39.3-58.2,68.4,0,17.7,9.9,23.7,20.7,23.1,14.1-.3,30.3-8.4,46.2-21.3ZM1133.64,555.51c-4.8-.3-28.2-.9-50.7,7.2.6,24.3,2.7,45,6.9,61.8,18-18.3,34.2-42.6,43.8-69Z"/>
      <path d="M1464.24,527.91c-.9,3.9-1.8,7.8-3,11.4,52.8,9.3,72.3,42.3,72.3,77.7,0,47.7-40.8,76.5-115.8,84.9-1.2-4.2-5.4-13.2-8.1-18,62.1-6,102-27.6,102-66.3v-2.1c-1.5-34.8-24.9-51.9-57-57.3-12.9,33.9-34.8,65.4-59.7,88.2,2.1,6.3,4.8,11.7,7.8,16.2l-17.7,11.1c-2.7-4.2-5.1-9.3-7.2-15-24,17.7-43.2,22.5-56.7,22.5-24,0-36.3-17.7-36.3-39.9,0-41.4,34.2-74.4,77.7-91.8-.6-15.6-.6-32.7-.3-50.4-50.7,0-56.1,0-66-.6l-.6-19.8c15.3.9,41.4.9,67.2.9.3-13.8.9-30.6,1.5-44.7l30,2.1c-.3,3-3.3,5.4-7.8,6-.9,11.1-1.5,24.9-2.4,36,32.7-.9,90-4.8,120.3-12.6l2.7,20.4c-31.8,7.8-89.7,10.8-123.9,11.7-.6,15.6-.9,30.6-.6,44.7,21-6.6,39.9-6.9,45-6.9,4.5,0,8.4,0,12.3.3,1.2-4.8,2.1-9.3,3-14.1l21.3,5.4ZM1372.14,639.81c-4.8-18.6-7.5-42.3-8.7-70.2-32.7,14.4-58.2,39.3-58.2,68.4,0,17.7,9.9,23.7,20.7,23.1,14.1-.3,30.3-8.4,46.2-21.3ZM1433.64,555.51c-4.8-.3-28.2-.9-50.7,7.2.6,24.3,2.7,45,6.9,61.8,18-18.3,34.2-42.6,43.8-69Z"/>
    </g>
  </g>
</svg>