<?xml version="1.0" encoding="UTF-8" standalone="no"?>
<!DOCTYPE svg PUBLIC "-//W3C//DTD SVG 1.1//EN" "http://www.w3.org/Graphics/SVG/1.1/DTD/svg11.dtd">
<svg width="100%" height="100%" viewBox="0 0 944 962" version="1.1" xmlns="http://www.w3.org/2000/svg" xmlns:xlink="http://www.w3.org/1999/xlink" xml:space="preserve" xmlns:serif="http://www.serif.com/" style="fill-rule:evenodd;clip-rule:evenodd;stroke-linejoin:round;stroke-miterlimit:2;">
    <g transform="matrix(1,0,0,1,-144.556844,-285.148276)">
        <g transform="matrix(1.02509,0,0,1,-184.724839,-274.529097)">
            <rect x="473.222" y="814.947" width="580.977" height="453.953"/>
        </g>
        <g transform="matrix(1,0,0,1,-141.670343,-852.061967)">
            <path d="M598.612,1195.257L624.63,1195.257C624.959,1195.257 625.375,1195.243 625.768,1195.225C634.514,1191.42 643.294,1189.685 652.028,1189.685C662.068,1189.685 681.277,1194.936 705.819,1213.342C706.214,1213.638 706.603,1213.941 706.987,1214.251C720.978,1225.542 730.625,1235.309 736.672,1242.819L736.672,1230.423C736.672,1208.337 745.536,1196.405 750.733,1191.208C752.127,1189.814 753.619,1188.52 755.196,1187.337C760.075,1183.678 770.723,1177.611 789.019,1177.611C789.257,1177.611 789.496,1177.613 789.734,1177.617L897.576,1179.468L1047.319,1179.468L1155.161,1177.617C1155.399,1177.613 1155.637,1177.611 1155.876,1177.611C1173.446,1177.611 1185.832,1184.28 1194.618,1193.417C1202.884,1202.013 1209.152,1214.158 1209.152,1231.351C1209.152,1232.342 1209.117,1233.332 1209.046,1234.32L1206.26,1273.328L1206.256,1273.381C1203.647,1309.253 1201.409,1332.027 1199.781,1341.646C1196.755,1360.537 1191.302,1376.365 1184.053,1389.306C1179.2,1398.344 1173.415,1406.384 1166.663,1413.369C1181.504,1415.623 1190.214,1422.234 1194.626,1426.646C1196.02,1428.041 1197.314,1429.532 1198.497,1431.109C1202.305,1436.187 1208.223,1446.696 1208.223,1464.468L1208.223,1503.476C1208.223,1510.474 1207.356,1516.463 1206.009,1521.545C1209.82,1523.881 1213.157,1526.668 1216.084,1529.734C1223.971,1537.997 1230.049,1549.642 1230.049,1566.166L1230.049,1607.031C1230.049,1627.823 1222.395,1639.329 1218.114,1644.221C1212.572,1650.554 1200.797,1660.307 1178.63,1660.307C1178.396,1660.307 1178.162,1660.305 1177.927,1660.302L1073.138,1658.533L1073.513,1666.935C1073.54,1667.554 1073.554,1668.174 1073.554,1668.793C1073.554,1669.03 1073.553,1669.266 1073.551,1669.5L1081.455,1669.389C1081.65,1669.386 1081.845,1669.385 1082.04,1669.385C1099.04,1669.385 1110.994,1675.931 1119.494,1684.836C1127.381,1693.098 1133.459,1704.743 1133.459,1721.268C1133.459,1721.832 1133.447,1722.396 1133.424,1722.96L1131.137,1779.233L1131.137,1824.906L1133.424,1881.178C1133.447,1881.742 1133.459,1882.306 1133.459,1882.871C1133.459,1888.19 1132.829,1893.004 1131.711,1897.362C1157.038,1923.139 1180.849,1949.827 1203.145,1977.422C1203.307,1977.622 1203.467,1977.824 1203.626,1978.027C1213.841,1991.161 1215.653,2002.813 1215.653,2010.11C1215.653,2020.305 1211.024,2040.922 1183.836,2056.781C1183.634,2056.899 1183.431,2057.015 1183.227,2057.13L1127.043,2088.646C1113.685,2096.928 1102.721,2098.678 1095.971,2098.678C1084.792,2098.678 1066.38,2094.447 1052.279,2071.215C1048.749,2065.846 1043.801,2059.1 1037.484,2050.941L1037.332,2050.744L1036.044,2049.057C874.624,2063.29 680.567,2074.564 453.871,2082.862L453.735,2082.866C433.902,2083.527 419.998,2084.232 412.282,2087.161C398.051,2094.024 386.117,2096.356 377.118,2096.356C357.539,2096.356 335.338,2086.804 324.461,2053.086C324.336,2052.701 324.218,2052.314 324.105,2051.925C315.919,2023.768 309.192,1993.649 303.954,1961.563C301.903,1949.005 305.703,1936.199 314.271,1926.792C322.838,1917.385 335.235,1912.409 347.929,1913.28C369.721,1914.776 388.604,1915.747 404.578,1916.177C400.769,1911.08 394.891,1900.582 394.891,1882.871C394.891,1882.419 394.898,1881.968 394.913,1881.516L396.749,1825.075L396.749,1779.063L395.411,1737.927C384.65,1736.308 367.306,1729.271 348.852,1708.706C337.995,1697.457 325.29,1687.701 310.805,1679.354C300.088,1673.178 292.669,1662.561 290.555,1650.374C288.441,1638.187 291.851,1625.691 299.861,1616.267C322.108,1590.095 337.636,1564.389 345.75,1538.74L345.822,1538.515C353.594,1514.422 357.341,1484.149 357.711,1447.775C355.71,1446.853 353.672,1445.738 351.608,1444.398C346.063,1440.799 336.235,1431.517 326.021,1413.521L325.96,1413.413C318.265,1399.761 309.104,1387.581 298.431,1376.908C289.47,1367.947 285.075,1355.396 286.487,1342.802C287.899,1330.209 294.965,1318.942 305.688,1312.189C355.109,1281.062 392.365,1244.967 416.83,1203.24C423.304,1190.871 427.752,1180.17 429.562,1170.897C433.806,1149.147 454.332,1134.524 476.276,1137.619C501.493,1141.175 528.328,1146.176 556.778,1152.642C557.52,1152.811 558.258,1153 558.99,1153.209C587.111,1161.243 596.762,1178.75 598.612,1195.257ZM582.836,1599.601C589.028,1612.604 594.446,1630.405 599.089,1653.005C600.637,1661.673 602.65,1666.936 605.126,1668.793C606.984,1670.341 613.485,1671.115 624.63,1671.115C665.185,1671.115 694.286,1668.793 711.933,1664.15C713.171,1682.105 713.79,1698.359 713.79,1712.909L580.05,1712.909L447.703,1711.052C442.749,1711.052 439.654,1711.516 438.415,1712.445C437.177,1713.373 436.558,1716.314 436.558,1721.268L438.415,1778.386L438.415,1825.752L436.558,1882.871C436.558,1887.205 437.022,1889.991 437.951,1891.229C439.189,1892.468 442.44,1893.087 447.703,1893.087L580.05,1891.229L713.79,1891.229L713.79,1952.063C628.035,1954.849 538.101,1956.706 443.988,1957.635C436.867,1957.945 429.592,1958.099 422.162,1958.099C402.349,1958.099 376.653,1957.016 345.076,1954.849C350.029,1985.188 356.376,2013.67 364.115,2040.294C367.211,2049.891 371.545,2054.69 377.118,2054.69C381.761,2054.69 387.798,2052.832 395.228,2049.117C405.445,2044.783 424.484,2042.152 452.347,2041.223C689.178,2032.554 890.253,2020.635 1055.571,2005.466C1057.428,2008.252 1062.382,2014.908 1070.431,2025.434C1077.861,2035.031 1083.588,2042.925 1087.613,2049.117C1090.708,2054.38 1093.495,2057.012 1095.971,2057.012C1098.138,2057.012 1101.389,2055.618 1105.723,2052.832L1162.842,2020.79C1170.272,2016.456 1173.987,2012.896 1173.987,2010.11C1173.987,2008.562 1172.903,2006.395 1170.736,2003.608C1139.468,1964.91 1105.104,1928.07 1067.644,1893.087L1082.04,1893.087C1088.541,1893.087 1091.792,1889.681 1091.792,1882.871L1089.47,1825.752L1089.47,1778.386L1091.792,1721.268C1091.792,1714.457 1088.541,1711.052 1082.04,1711.052L949.693,1712.909L806.201,1712.909C806.201,1696.192 808.058,1684.427 811.773,1677.617C815.798,1670.806 817.81,1665.698 817.81,1662.292C817.81,1656.41 813.012,1653.005 803.415,1652.076C778.029,1649.599 758.061,1648.051 743.51,1647.432C754.965,1635.977 760.692,1618.796 760.692,1595.886L759.763,1518.8L759.763,1403.635L761.621,1342.802C761.621,1338.158 761.156,1335.217 760.228,1333.978C758.989,1332.74 755.894,1332.121 750.94,1332.121L658.065,1333.978C660.232,1331.192 666.888,1322.369 678.033,1307.509C685.463,1297.293 691.655,1290.946 696.608,1288.47C703.729,1284.445 707.289,1279.956 707.289,1275.003C707.289,1270.359 698.466,1260.917 680.819,1246.676C667.198,1236.46 657.601,1231.351 652.028,1231.351C648.313,1231.351 644.598,1232.28 640.883,1234.138C637.168,1235.995 631.75,1236.924 624.63,1236.924L533.148,1236.924C540.888,1224.541 546.924,1216.646 551.259,1213.241C555.283,1210.145 557.295,1206.275 557.295,1201.631C557.295,1197.916 554.045,1195.13 547.544,1193.273C520.3,1187.081 494.605,1182.282 470.457,1178.877C467.981,1191.57 462.253,1206.43 453.275,1223.457C425.722,1270.823 383.929,1312.153 327.894,1347.445C341.206,1360.757 352.661,1375.927 362.258,1392.954C368.759,1404.409 373.403,1410.136 376.189,1410.136C379.594,1410.136 387.334,1405.957 399.408,1397.598L399.408,1441.714C399.408,1485.984 394.764,1522.515 385.476,1551.306C375.879,1581.646 357.923,1612.294 331.609,1643.253C349.874,1653.779 365.818,1666.162 379.44,1680.403C389.037,1691.238 396.002,1696.656 400.336,1696.656C404.051,1696.656 409.779,1690.929 417.518,1679.474C443.523,1642.014 460.551,1602.388 468.6,1560.594L683.606,1560.594L683.606,1574.061C683.606,1592.945 673.389,1602.388 652.957,1602.388C629.119,1602.388 605.745,1601.459 582.836,1599.601ZM995.666,1828.539L806.201,1828.539L806.201,1775.6L995.666,1775.6L995.666,1828.539ZM616.271,1511.834L616.271,1469.112L683.606,1469.112L683.606,1511.834L616.271,1511.834ZM467.671,1333.978C479.745,1320.976 490.58,1307.354 500.177,1293.113L598.161,1293.113C590.731,1306.116 580.824,1319.738 568.441,1333.978L467.671,1333.978ZM477.423,1425.46L477.423,1382.738L543.829,1382.738L543.829,1425.46L477.423,1425.46ZM949.693,1891.229C984.676,1891.229 1008.514,1891.539 1021.207,1892.158L988.701,1907.483C981.89,1910.888 978.484,1913.674 978.484,1915.841C978.484,1917.389 980.032,1919.711 983.128,1922.807L997.524,1936.738C934.678,1941.692 870.904,1945.561 806.201,1948.348L806.201,1891.229L949.693,1891.229ZM534.077,1828.539L534.077,1775.6L713.79,1775.6L713.79,1828.539L534.077,1828.539ZM683.606,1382.738L683.606,1425.46L616.271,1425.46L616.271,1382.738L683.606,1382.738ZM474.172,1511.834L477.423,1469.112L543.829,1469.112L543.829,1511.834L474.172,1511.834ZM1178.63,1555.95L1068.573,1557.808L1029.566,1557.808L1029.566,1513.227L1039.782,1513.227L1155.876,1515.085C1160.52,1515.085 1163.461,1514.621 1164.699,1513.692C1165.937,1512.454 1166.557,1509.048 1166.557,1503.476L1166.557,1464.468C1166.557,1460.134 1166.092,1457.348 1165.163,1456.109C1163.925,1454.871 1160.829,1454.252 1155.876,1454.252L1039.782,1456.109L1029.566,1456.109C1029.566,1439.082 1030.804,1427.937 1033.281,1422.674C1036.686,1417.102 1038.389,1413.232 1038.389,1411.065C1038.389,1409.207 1037.615,1407.659 1036.067,1406.421C1059.905,1406.421 1078.944,1405.492 1093.185,1403.635C1118.881,1400.539 1136.991,1389.084 1147.517,1369.271C1152.78,1359.983 1156.495,1348.529 1158.662,1334.907C1160.21,1325.929 1162.222,1304.413 1164.699,1270.359L1167.485,1231.351C1167.485,1223.302 1163.615,1219.278 1155.876,1219.278L1047.676,1221.135L897.219,1221.135L789.019,1219.278C784.375,1219.278 781.434,1219.742 780.196,1220.671C778.958,1221.909 778.338,1225.16 778.338,1230.423L778.338,1281.04C778.338,1285.374 778.803,1288.16 779.731,1289.398C780.97,1290.637 784.066,1291.256 789.019,1291.256C789.329,1291.256 796.294,1291.101 809.916,1290.791C830.348,1290.172 854.032,1289.708 880.965,1289.398C875.083,1309.831 863.784,1325.929 847.066,1337.693C829.729,1350.077 801.093,1360.912 761.156,1370.2C773.849,1379.797 785.923,1394.347 797.378,1413.851C803.879,1425.925 809.606,1431.962 814.56,1431.962C818.275,1431.962 825.859,1430.104 837.314,1426.389C836.076,1429.485 833.599,1434.284 829.884,1440.785C817.191,1463.075 797.533,1485.21 770.908,1507.191C785.149,1514.93 796.913,1523.753 806.201,1533.66C816.727,1544.495 823.692,1549.913 827.098,1549.913C830.194,1549.913 837.159,1543.567 847.995,1530.874L861.926,1513.227L946.907,1513.227L946.907,1557.808L906.97,1557.808L797.378,1555.95C792.424,1555.95 789.329,1556.414 788.09,1557.343C786.852,1558.272 786.233,1561.213 786.233,1566.166L786.233,1607.031C786.233,1611.985 786.697,1615.081 787.626,1616.319C788.555,1617.867 791.805,1618.641 797.378,1618.641L906.97,1616.783L946.907,1616.783C946.597,1629.167 946.133,1640.931 945.514,1652.076C945.204,1662.911 945.049,1668.484 945.049,1668.793C945.049,1673.747 945.514,1676.843 946.442,1678.081C947.681,1679.629 950.931,1680.403 956.194,1680.403L1019.814,1680.403C1025.077,1680.403 1028.327,1679.938 1029.566,1679.01C1031.114,1677.771 1031.888,1674.366 1031.888,1668.793L1029.566,1616.783L1068.573,1616.783L1178.63,1618.641C1182.964,1618.641 1185.673,1618.022 1186.757,1616.783C1187.84,1615.545 1188.382,1612.294 1188.382,1607.031L1188.382,1566.166C1188.382,1559.355 1185.132,1555.95 1178.63,1555.95ZM980.806,1341.873C987.617,1352.708 992.416,1366.02 995.202,1381.809C997.679,1391.406 999.226,1396.824 999.846,1398.062L941.799,1393.883C945.204,1411.529 946.907,1432.271 946.907,1456.109L897.219,1456.109C901.243,1448.06 905.423,1442.333 909.757,1438.927C913.781,1436.141 915.794,1432.89 915.794,1429.175C915.794,1425.77 912.543,1422.984 906.042,1420.817C886.228,1414.935 875.393,1411.684 873.535,1411.065C922.14,1385.989 952.944,1345.433 965.946,1289.398L1076.003,1289.398C1075.074,1309.212 1072.907,1323.453 1069.502,1332.121C1065.477,1341.718 1054.023,1346.517 1035.138,1346.517C1017.182,1346.517 999.072,1344.969 980.806,1341.873ZM472.588,1669.73L560.57,1670.965C559.654,1667.878 558.846,1664.541 558.182,1660.939C554.399,1642.619 550.253,1628.091 545.217,1617.515C542.9,1612.65 541.587,1607.47 541.254,1602.26L501.174,1602.26C494.184,1625.364 484.663,1647.861 472.588,1669.73ZM903.418,1671.242C903.395,1670.442 903.383,1669.625 903.383,1668.793C903.383,1668.544 903.467,1665.117 903.649,1658.512L859.398,1659.262C859.451,1660.259 859.477,1661.269 859.477,1662.292C859.477,1664.812 859.23,1667.812 858.593,1671.242L903.418,1671.242Z"/>
            <path d="M582.836,1599.601C605.745,1601.459 629.119,1602.388 652.957,1602.388C673.389,1602.388 683.606,1592.945 683.606,1574.061L683.606,1560.594L468.6,1560.594C460.551,1602.388 443.523,1642.014 417.518,1679.474C409.779,1690.929 404.051,1696.656 400.336,1696.656C396.002,1696.656 389.037,1691.238 379.44,1680.403C365.818,1666.162 349.874,1653.779 331.609,1643.253C357.923,1612.294 375.879,1581.646 385.476,1551.306C394.764,1522.515 399.408,1485.984 399.408,1441.714L399.408,1397.598C387.334,1405.957 379.594,1410.136 376.189,1410.136C373.403,1410.136 368.759,1404.409 362.258,1392.954C352.661,1375.927 341.206,1360.757 327.894,1347.445C383.929,1312.153 425.722,1270.823 453.275,1223.457C462.253,1206.43 467.981,1191.57 470.457,1178.877C494.605,1182.282 520.3,1187.081 547.544,1193.273C554.045,1195.13 557.295,1197.916 557.295,1201.631C557.295,1206.275 555.283,1210.145 551.259,1213.241C546.924,1216.646 540.888,1224.541 533.148,1236.924L624.63,1236.924C631.75,1236.924 637.168,1235.995 640.883,1234.138C644.598,1232.28 648.313,1231.351 652.028,1231.351C657.601,1231.351 667.198,1236.46 680.819,1246.676C698.466,1260.917 707.289,1270.359 707.289,1275.003C707.289,1279.956 703.729,1284.445 696.608,1288.47C691.655,1290.946 685.463,1297.293 678.033,1307.509C666.888,1322.369 660.232,1331.192 658.065,1333.978L750.94,1332.121C755.894,1332.121 758.989,1332.74 760.228,1333.978C761.156,1335.217 761.621,1338.158 761.621,1342.802L759.763,1403.635L759.763,1518.8L760.692,1595.886C760.692,1618.796 754.965,1635.977 743.51,1647.432C758.061,1648.051 778.029,1649.599 803.415,1652.076C813.012,1653.005 817.81,1656.41 817.81,1662.292C817.81,1665.698 815.798,1670.806 811.773,1677.617C808.058,1684.427 806.201,1696.192 806.201,1712.909L949.693,1712.909L1082.04,1711.052C1088.541,1711.052 1091.792,1714.457 1091.792,1721.268L1089.47,1778.386L1089.47,1825.752L1091.792,1882.871C1091.792,1889.681 1088.541,1893.087 1082.04,1893.087L1067.644,1893.087C1105.104,1928.07 1139.468,1964.91 1170.736,2003.608C1172.903,2006.395 1173.987,2008.562 1173.987,2010.11C1173.987,2012.896 1170.272,2016.456 1162.842,2020.79L1105.723,2052.832C1101.389,2055.618 1098.138,2057.012 1095.971,2057.012C1093.495,2057.012 1090.708,2054.38 1087.613,2049.117C1083.588,2042.925 1077.861,2035.031 1070.431,2025.434C1062.382,2014.908 1057.428,2008.252 1055.571,2005.466C890.253,2020.635 689.178,2032.554 452.347,2041.223C424.484,2042.152 405.445,2044.783 395.228,2049.117C387.798,2052.832 381.761,2054.69 377.118,2054.69C371.545,2054.69 367.211,2049.891 364.115,2040.294C356.376,2013.67 350.029,1985.188 345.076,1954.849C376.653,1957.016 402.349,1958.099 422.162,1958.099C429.592,1958.099 436.867,1957.945 443.988,1957.635C538.101,1956.706 628.035,1954.849 713.79,1952.063L713.79,1891.229L580.05,1891.229L447.703,1893.087C442.44,1893.087 439.189,1892.468 437.951,1891.229C437.022,1889.991 436.558,1887.205 436.558,1882.871L438.415,1825.752L438.415,1778.386L436.558,1721.268C436.558,1716.314 437.177,1713.373 438.415,1712.445C439.654,1711.516 442.749,1711.052 447.703,1711.052L580.05,1712.909L713.79,1712.909C713.79,1698.359 713.171,1682.105 711.933,1664.15C694.286,1668.793 665.185,1671.115 624.63,1671.115C613.485,1671.115 606.984,1670.341 605.126,1668.793C602.65,1666.936 600.637,1661.673 599.089,1653.005C594.446,1630.405 589.028,1612.604 582.836,1599.601ZM995.666,1828.539L995.666,1775.6L806.201,1775.6L806.201,1828.539L995.666,1828.539ZM949.693,1891.229L806.201,1891.229L806.201,1948.348C870.904,1945.561 934.678,1941.692 997.524,1936.738L983.128,1922.807C980.032,1919.711 978.484,1917.389 978.484,1915.841C978.484,1913.674 981.89,1910.888 988.701,1907.483L1021.207,1892.158C1008.514,1891.539 984.676,1891.229 949.693,1891.229ZM534.077,1828.539L713.79,1828.539L713.79,1775.6L534.077,1775.6L534.077,1828.539ZM467.671,1333.978L568.441,1333.978C580.824,1319.738 590.731,1306.116 598.161,1293.113L500.177,1293.113C490.58,1307.354 479.745,1320.976 467.671,1333.978ZM616.271,1511.834L683.606,1511.834L683.606,1469.112L616.271,1469.112L616.271,1511.834ZM683.606,1382.738L616.271,1382.738L616.271,1425.46L683.606,1425.46L683.606,1382.738ZM474.172,1511.834L543.829,1511.834L543.829,1469.112L477.423,1469.112L474.172,1511.834ZM477.423,1425.46L543.829,1425.46L543.829,1382.738L477.423,1382.738L477.423,1425.46ZM1178.63,1555.95C1185.132,1555.95 1188.382,1559.355 1188.382,1566.166L1188.382,1607.031C1188.382,1612.294 1187.84,1615.545 1186.757,1616.783C1185.673,1618.022 1182.964,1618.641 1178.63,1618.641L1068.573,1616.783L1029.566,1616.783L1031.888,1668.793C1031.888,1674.366 1031.114,1677.771 1029.566,1679.01C1028.327,1679.938 1025.077,1680.403 1019.814,1680.403L956.194,1680.403C950.931,1680.403 947.681,1679.629 946.442,1678.081C945.514,1676.843 945.049,1673.747 945.049,1668.793C945.049,1668.484 945.204,1662.911 945.514,1652.076C946.133,1640.931 946.597,1629.167 946.907,1616.783L906.97,1616.783L797.378,1618.641C791.805,1618.641 788.555,1617.867 787.626,1616.319C786.697,1615.081 786.233,1611.985 786.233,1607.031L786.233,1566.166C786.233,1561.213 786.852,1558.272 788.09,1557.343C789.329,1556.414 792.424,1555.95 797.378,1555.95L906.97,1557.808L946.907,1557.808L946.907,1513.227L861.926,1513.227L847.995,1530.874C837.159,1543.567 830.194,1549.913 827.098,1549.913C823.692,1549.913 816.727,1544.495 806.201,1533.66C796.913,1523.753 785.149,1514.93 770.908,1507.191C797.533,1485.21 817.191,1463.075 829.884,1440.785C833.599,1434.284 836.076,1429.485 837.314,1426.389C825.859,1430.104 818.275,1431.962 814.56,1431.962C809.606,1431.962 803.879,1425.925 797.378,1413.851C785.923,1394.347 773.849,1379.797 761.156,1370.2C801.093,1360.912 829.729,1350.077 847.066,1337.693C863.784,1325.929 875.083,1309.831 880.965,1289.398C854.032,1289.708 830.348,1290.172 809.916,1290.791C796.294,1291.101 789.329,1291.256 789.019,1291.256C784.066,1291.256 780.97,1290.637 779.731,1289.398C778.803,1288.16 778.338,1285.374 778.338,1281.04L778.338,1230.423C778.338,1225.16 778.958,1221.909 780.196,1220.671C781.434,1219.742 784.375,1219.278 789.019,1219.278L897.219,1221.135L1047.676,1221.135L1155.876,1219.278C1163.615,1219.278 1167.485,1223.302 1167.485,1231.351L1164.699,1270.359C1162.222,1304.413 1160.21,1325.929 1158.662,1334.907C1156.495,1348.529 1152.78,1359.983 1147.517,1369.271C1136.991,1389.084 1118.881,1400.539 1093.185,1403.635C1078.944,1405.492 1059.905,1406.421 1036.067,1406.421C1037.615,1407.659 1038.389,1409.207 1038.389,1411.065C1038.389,1413.232 1036.686,1417.102 1033.281,1422.674C1030.804,1427.937 1029.566,1439.082 1029.566,1456.109L1039.782,1456.109L1155.876,1454.252C1160.829,1454.252 1163.925,1454.871 1165.163,1456.109C1166.092,1457.348 1166.557,1460.134 1166.557,1464.468L1166.557,1503.476C1166.557,1509.048 1165.937,1512.454 1164.699,1513.692C1163.461,1514.621 1160.52,1515.085 1155.876,1515.085L1039.782,1513.227L1029.566,1513.227L1029.566,1557.808L1068.573,1557.808L1178.63,1555.95ZM980.806,1341.873C999.072,1344.969 1017.182,1346.517 1035.138,1346.517C1054.023,1346.517 1065.477,1341.718 1069.502,1332.121C1072.907,1323.453 1075.074,1309.212 1076.003,1289.398L965.946,1289.398C952.944,1345.433 922.14,1385.989 873.535,1411.065C875.393,1411.684 886.228,1414.935 906.042,1420.817C912.543,1422.984 915.794,1425.77 915.794,1429.175C915.794,1432.89 913.781,1436.141 909.757,1438.927C905.423,1442.333 901.243,1448.06 897.219,1456.109L946.907,1456.109C946.907,1432.271 945.204,1411.529 941.799,1393.883L999.846,1398.062C999.226,1396.824 997.679,1391.406 995.202,1381.809C992.416,1366.02 987.617,1352.708 980.806,1341.873Z" style="fill:rgb(255,108,0);fill-rule:nonzero;"/>
        </g>
    </g>
</svg>
