<?xml version="1.0" encoding="UTF-8" standalone="no"?>
<!DOCTYPE svg PUBLIC "-//W3C//DTD SVG 1.1//EN" "http://www.w3.org/Graphics/SVG/1.1/DTD/svg11.dtd">
<svg width="100%" height="100%" viewBox="0 0 927 150" version="1.1" xmlns="http://www.w3.org/2000/svg" xmlns:xlink="http://www.w3.org/1999/xlink" xml:space="preserve" xmlns:serif="http://www.serif.com/" style="fill-rule:evenodd;clip-rule:evenodd;stroke-linejoin:round;stroke-miterlimit:2;">
    <g transform="matrix(1,0,0,1,-1681.381005,-1376.931736)">
        <g transform="matrix(1,0,0,1,528.17595,64.703944)">
            <g transform="matrix(0.78,0,0,0.7,250.030831,437.965213)">
                <g transform="matrix(300,0,0,300,1136.503777,1459.884043)">
                    <path d="M0.135,-0.221L0.144,-0.325C0.193,-0.325 0.235,-0.335 0.271,-0.356C0.307,-0.376 0.337,-0.404 0.36,-0.439C0.383,-0.474 0.4,-0.513 0.412,-0.557C0.423,-0.601 0.429,-0.646 0.429,-0.693L0.536,-0.693C0.536,-0.632 0.527,-0.573 0.509,-0.516C0.491,-0.459 0.465,-0.409 0.431,-0.365C0.396,-0.32 0.354,-0.285 0.304,-0.259C0.255,-0.234 0.198,-0.221 0.135,-0.221ZM0.071,-0L0.071,-0.693L0.179,-0.693L0.179,-0L0.071,-0ZM0.442,-0L0.274,-0.331L0.369,-0.381L0.569,-0L0.442,-0Z" style="fill:rgb(255,0,41);fill-rule:nonzero;"/>
                </g>
                <g transform="matrix(300,0,0,300,1312.285027,1459.884043)">
                    <path d="M0.02,-0L0.22,-0.693L0.366,-0.693L0.566,-0L0.455,-0L0.297,-0.59L0.289,-0.59L0.131,-0L0.02,-0ZM0.115,-0.16L0.115,-0.259L0.466,-0.259L0.466,-0.16L0.115,-0.16Z" style="fill:rgb(255,0,41);fill-rule:nonzero;"/>
                </g>
                <g transform="matrix(300,0,0,300,1488.066277,1459.884043)">
                    <path d="M0.371,-0L0.189,-0.531L0.142,-0.531L0.142,-0.693L0.215,-0.693L0.397,-0.163L0.424,-0.163L0.424,-0L0.371,-0ZM0.07,-0L0.07,-0.693L0.177,-0.693L0.177,-0L0.07,-0ZM0.409,-0L0.409,-0.693L0.516,-0.693L0.516,-0L0.409,-0Z" style="fill:rgb(255,0,41);fill-rule:nonzero;"/>
                </g>
                <g transform="matrix(300,0,0,300,1663.847527,1459.884043)">
                    <path d="M0.239,-0L0.239,-0.693L0.346,-0.693L0.346,-0L0.239,-0ZM0.08,-0L0.08,-0.098L0.506,-0.098L0.506,-0L0.08,-0ZM0.08,-0.595L0.08,-0.693L0.506,-0.693L0.506,-0.595L0.08,-0.595Z" style="fill:rgb(255,0,41);fill-rule:nonzero;"/>
                </g>
            </g>
            <g transform="matrix(0.78,0,0,0.7,370.687081,437.965213)">
                <g transform="matrix(300,0,0,300,1684.941277,1459.884043)">
                    <path d="M0.276,-0.274L0.291,-0.393L0.297,-0.393L0.367,-0.693L0.436,-0.693L0.438,-0.57L0.409,-0.57L0.338,-0.274L0.276,-0.274ZM0.061,-0L0.061,-0.693L0.163,-0.693L0.163,-0L0.061,-0ZM0.248,-0.274L0.177,-0.57L0.148,-0.57L0.149,-0.693L0.219,-0.693L0.289,-0.393L0.293,-0.393L0.304,-0.274L0.248,-0.274ZM0.423,-0L0.423,-0.693L0.525,-0.693L0.525,-0L0.423,-0Z" style="fill-rule:nonzero;"/>
                </g>
                <g transform="matrix(300,0,0,300,1860.722527,1459.884043)">
                    <path d="M0.293,0.01C0.121,0.01 0.035,-0.107 0.035,-0.342C0.035,-0.583 0.121,-0.703 0.293,-0.703C0.465,-0.703 0.551,-0.583 0.551,-0.342C0.551,-0.107 0.465,0.01 0.293,0.01ZM0.293,-0.088C0.391,-0.088 0.439,-0.172 0.439,-0.342C0.439,-0.518 0.391,-0.606 0.293,-0.606C0.195,-0.606 0.147,-0.518 0.147,-0.342C0.147,-0.172 0.195,-0.088 0.293,-0.088Z" style="fill-rule:nonzero;"/>
                </g>
                <g transform="matrix(300,0,0,300,2036.503777,1459.884043)">
                    <path d="M0.371,-0L0.189,-0.531L0.142,-0.531L0.142,-0.693L0.215,-0.693L0.397,-0.163L0.424,-0.163L0.424,-0L0.371,-0ZM0.07,-0L0.07,-0.693L0.177,-0.693L0.177,-0L0.07,-0ZM0.409,-0L0.409,-0.693L0.516,-0.693L0.516,-0L0.409,-0Z" style="fill-rule:nonzero;"/>
                </g>
                <g transform="matrix(300,0,0,300,2212.285027,1459.884043)">
                </g>
            </g>
        </g>
    </g>
</svg>
