<?xml version="1.0" encoding="UTF-8" standalone="no"?>
<!DOCTYPE svg PUBLIC "-//W3C//DTD SVG 1.1//EN" "http://www.w3.org/Graphics/SVG/1.1/DTD/svg11.dtd">
<svg width="100%" height="100%" viewBox="0 0 942 951" version="1.1" xmlns="http://www.w3.org/2000/svg" xmlns:xlink="http://www.w3.org/1999/xlink" xml:space="preserve" xmlns:serif="http://www.serif.com/" style="fill-rule:evenodd;clip-rule:evenodd;stroke-linejoin:round;stroke-miterlimit:2;">
    <g transform="matrix(1,0,0,1,-1048.997916,-1341.249353)">
        <g transform="matrix(1.270609,0,0,0.985665,509.459453,759.027934)">
            <rect x="473.222" y="814.947" width="580.977" height="453.953"/>
        </g>
        <g transform="matrix(1,0,0,1,768.343239,195.21597)">
            <path d="M632.332,1231.993C655.205,1258.936 682.411,1284.371 713.876,1308.378L712.532,1236.777C712.527,1236.517 712.524,1236.256 712.524,1235.995C712.524,1210.699 724.724,1198.582 731.048,1193.839C736.126,1190.03 746.635,1184.112 764.407,1184.112C764.651,1184.112 764.894,1184.114 765.138,1184.119L870.65,1185.97L1009.695,1185.97L1114.741,1184.119C1114.986,1184.114 1115.23,1184.112 1115.475,1184.112C1138.067,1184.112 1150.134,1193.153 1155.154,1198.174C1156.548,1199.568 1157.842,1201.059 1159.025,1202.636C1162.833,1207.714 1168.751,1218.223 1168.751,1235.995C1168.751,1236.256 1168.749,1236.517 1168.744,1236.777L1166.894,1335.298L1166.894,1506.483C1168.816,1506.419 1170.097,1506.389 1170.736,1506.389C1196.032,1506.389 1208.149,1518.589 1212.892,1524.913C1216.701,1529.991 1222.619,1540.5 1222.619,1558.272C1222.619,1558.486 1222.617,1558.699 1222.614,1558.913L1220.761,1679.33L1220.761,1805.531L1222.616,1958.057C1222.618,1958.226 1222.619,1958.395 1222.619,1958.564C1222.619,2001.742 1209.006,2033.495 1185.826,2055.311C1185.6,2055.523 1185.373,2055.733 1185.143,2055.94C1165.236,2073.856 1124.563,2087.547 1061.06,2088.448C1054.238,2088.784 1049.776,2088.926 1047.676,2088.926C1017.23,2088.926 1001.622,2074.625 994.273,2060.977L994.616,2061.596C992.58,2057.826 988.276,2046.309 984.464,2026.308C981.232,2009.462 976.054,1994.686 968.55,1982.119C955.494,1978.414 947.78,1970.981 943.466,1965.064C941.036,1976.726 936.113,1983.823 932.988,1987.395C927.678,1993.462 915.792,2003.481 893.039,2003.481L843.351,2003.481C838.444,2003.481 834.021,2003.021 830.041,2002.226L830.681,2044.776C830.684,2044.984 830.686,2045.193 830.686,2045.402C830.686,2062.56 823.93,2074.62 814.493,2083.199C806.403,2090.553 794.982,2096.356 778.803,2096.356L710.075,2096.356C693.539,2096.356 681.915,2090.098 673.647,2081.831C665.379,2073.563 659.121,2061.938 659.121,2045.402C659.121,2045.197 659.122,2044.992 659.125,2044.787L659.89,1993.022C658.709,1993.479 657.498,1993.937 656.256,1994.396L655.826,1994.552C594.133,2016.586 521.272,2038.484 437.231,2060.203L436.912,2060.284C429.12,2062.232 419.921,2065.481 417.871,2066.216C404.511,2075.867 391.122,2079.639 378.511,2079.639C358.678,2079.639 338.566,2070.54 326.04,2042.356C325.704,2041.602 325.391,2040.837 325.101,2040.064C318.35,2022.061 309.467,1994.105 298.537,1956.169C295.125,1944.33 297.129,1931.588 304.009,1921.366C310.889,1911.145 321.939,1904.493 334.192,1903.197C343.299,1902.234 352.277,1901.154 361.125,1899.958C358.777,1894.51 357.061,1888.012 356.211,1880.288C348.556,1830.58 337.443,1784.208 322.81,1741.187C322.648,1740.708 322.494,1740.226 322.348,1739.742C319.838,1731.375 319.198,1724.987 319.198,1720.803C319.198,1712.567 321.411,1701.711 329.498,1691.417C326.054,1689.296 323.482,1687.085 321.65,1685.254C320.256,1683.859 318.962,1682.368 317.779,1680.791C314.12,1675.912 308.053,1665.264 308.053,1646.968L308.053,1583.348C308.053,1558.052 320.253,1545.935 326.577,1541.192C328.577,1539.692 330.707,1538.375 332.943,1537.257C336.847,1535.305 345.76,1531.93 360.4,1531.93L360.807,1531.932L380.892,1532.128C380.095,1531.438 379.389,1530.773 378.768,1530.152C377.374,1528.758 376.081,1527.267 374.898,1525.689C374.602,1525.296 374.292,1524.865 373.97,1524.395C367.784,1526.336 362.557,1527.032 358.543,1527.032C341.242,1527.032 314.264,1516.371 305.345,1473.607C300.134,1452.44 294.206,1435.653 286.786,1423.534C275.808,1405.603 279.908,1382.303 296.347,1369.197C358.716,1319.474 404.89,1269.045 434.206,1217.31L434.328,1217.097C441.187,1205.158 446.818,1191.404 451.391,1175.908C457.212,1156.18 476.558,1143.652 496.94,1146.41C550.848,1153.703 580.333,1157.869 585.407,1158.821C585.571,1158.852 585.735,1158.883 585.9,1158.916C624.422,1166.621 635.648,1190.299 635.648,1212.312C635.648,1219.055 634.638,1225.683 632.332,1231.993ZM549.482,1381.936C545.104,1376.838 540.812,1371.664 536.607,1366.413C532.631,1371.644 528.612,1376.819 524.552,1381.936L549.482,1381.936ZM686.265,1474.596L686.265,1491.866C686.265,1500.657 684.811,1507.912 682.567,1513.876C689.868,1509.261 698.888,1506.389 710.075,1506.389C710.542,1506.389 711.978,1506.421 714.382,1506.488L714.382,1452.297C705.316,1464.672 695.124,1471.324 686.265,1474.596ZM1046.283,1931.166L1043.961,1819.251L1043.961,1762.133L1046.283,1701.3C1046.283,1696.656 1045.819,1693.715 1044.89,1692.477C1043.961,1691.238 1040.865,1690.619 1035.603,1690.619L971.983,1692.477L906.97,1692.477L843.351,1690.619C838.707,1690.619 835.766,1691.083 834.528,1692.012C833.29,1692.941 832.67,1696.037 832.67,1701.3L834.992,1776.529L834.992,1824.824L832.67,1950.205C832.67,1955.158 833.135,1958.254 834.063,1959.493C835.302,1961.041 838.398,1961.814 843.351,1961.814L893.039,1961.814C897.683,1961.814 900.547,1961.195 901.63,1959.957C902.714,1958.719 903.255,1955.468 903.255,1950.205L903.255,1916.306L975.698,1916.306L975.698,1931.166C975.698,1936.119 976.162,1939.215 977.091,1940.453C978.02,1942.001 981.116,1942.775 986.379,1942.775L1035.603,1942.775C1040.556,1942.775 1043.574,1942.156 1044.658,1940.918C1045.741,1939.679 1046.283,1936.429 1046.283,1931.166ZM975.698,1760.275L975.698,1849.436L903.255,1849.436L903.255,1760.275L975.698,1760.275ZM578.192,1828.539C590.266,1832.254 602.65,1837.671 615.342,1844.792C621.844,1848.507 626.797,1850.364 630.202,1850.364C633.608,1850.364 638.097,1844.018 643.669,1831.325C653.266,1807.797 662.709,1780.553 671.996,1749.595C674.473,1742.474 678.033,1735.818 682.677,1729.627C686.392,1725.912 688.249,1722.197 688.249,1718.482C688.249,1715.076 685.154,1711.826 678.962,1708.73C659.149,1699.442 637.942,1691.857 615.342,1685.975C614.414,1695.882 612.866,1707.646 610.699,1721.268C601.411,1763.371 590.576,1799.128 578.192,1828.539ZM427.735,1699.442C426.187,1693.56 424.174,1690.619 421.698,1690.619C419.84,1690.619 417.209,1691.548 413.803,1693.405L371.545,1710.587C364.425,1713.993 360.865,1717.398 360.865,1720.803C360.865,1722.351 361.329,1724.673 362.258,1727.769C377.737,1773.278 389.501,1822.347 397.55,1874.976C398.169,1881.477 400.027,1884.728 403.123,1884.728C404.98,1884.728 408.54,1883.799 413.803,1881.942L452.811,1864.76C460.86,1861.355 464.885,1857.33 464.885,1852.686C464.885,1851.138 464.73,1849.436 464.42,1847.578C456.99,1796.806 444.762,1747.428 427.735,1699.442ZM491.354,1187.7C485.782,1206.585 478.816,1223.302 470.457,1237.853C438.88,1293.578 389.501,1348.219 322.321,1401.777C331.609,1416.947 339.503,1437.844 346.005,1464.468C348.791,1478.399 352.97,1485.365 358.543,1485.365C362.877,1485.365 369.533,1481.96 378.511,1475.149C379.749,1473.601 384.083,1469.576 391.513,1463.075C398.015,1457.812 403.123,1453.168 406.838,1449.144L406.838,1491.866C406.838,1496.51 407.302,1499.451 408.231,1500.689C409.469,1501.928 412.565,1502.547 417.518,1502.547L483.924,1500.689L483.924,1574.525L455.597,1574.525L360.4,1573.596C355.756,1573.596 352.815,1573.906 351.577,1574.525C350.339,1575.454 349.72,1578.395 349.72,1583.348L349.72,1646.968C349.72,1651.611 350.184,1654.553 351.113,1655.791C352.351,1657.029 355.447,1657.648 360.4,1657.648L455.597,1655.326L483.924,1655.326L483.924,1920.021L430.521,1930.237C401.42,1936.429 370.771,1941.227 338.574,1944.633C349.1,1981.163 357.614,2008.097 364.115,2025.434C367.83,2033.793 372.629,2037.972 378.511,2037.972C383.774,2037.972 389.191,2035.805 394.764,2031.471C400.027,2027.756 410.708,2023.886 426.806,2019.861C509.465,1998.5 581.133,1976.984 641.812,1955.313C656.053,1950.05 664.257,1946.335 666.424,1944.168C669.52,1940.763 671.068,1931.166 671.068,1915.377C671.068,1901.446 672.306,1884.264 674.783,1863.831C641.967,1876.524 606.519,1887.979 568.441,1898.195L568.441,1655.326L662.709,1657.648C667.043,1657.648 669.829,1657.184 671.068,1656.255C672.306,1655.326 672.925,1652.231 672.925,1646.968L672.925,1583.348C672.925,1578.704 672.461,1575.918 671.532,1574.989C670.603,1574.061 667.662,1573.596 662.709,1573.596L568.441,1574.525L568.441,1500.689L632.989,1502.547C637.942,1502.547 641.038,1502.082 642.276,1501.154C643.824,1500.225 644.598,1497.129 644.598,1491.866L644.598,1432.89C644.598,1427.937 644.134,1424.841 643.205,1423.603C641.967,1422.365 638.561,1421.745 632.989,1421.745L560.082,1423.603L491.354,1423.603C459.777,1423.603 440.428,1423.293 433.307,1422.674C470.767,1384.286 505.131,1341.718 536.399,1294.971C567.667,1343.266 605.591,1385.679 650.171,1422.21C661.006,1431.188 668.281,1435.677 671.996,1435.677C676.64,1435.677 681.748,1429.021 687.321,1415.709C694.441,1398.991 705.586,1381.964 720.756,1364.627C661.006,1324.072 613.485,1279.337 578.192,1230.423C578.812,1229.184 580.359,1227.946 582.836,1226.708C590.266,1222.993 593.981,1218.194 593.981,1212.312C593.981,1206.12 588.563,1201.941 577.728,1199.774C572.775,1198.845 543.983,1194.82 491.354,1187.7ZM1003.561,1959.493C1013.777,1976.21 1021.052,1995.869 1025.386,2018.468C1027.863,2031.471 1029.72,2039.056 1030.959,2041.223C1033.126,2045.247 1038.698,2047.26 1047.676,2047.26C1049.534,2047.26 1053.558,2047.105 1059.75,2046.795C1109.284,2046.176 1141.79,2038.901 1157.269,2024.97C1173.058,2010.11 1180.952,1987.974 1180.952,1958.564L1179.095,1805.784L1179.095,1679.01L1180.952,1558.272C1180.952,1553.938 1180.488,1551.152 1179.559,1549.913C1178.63,1548.675 1175.689,1548.056 1170.736,1548.056C1169.498,1548.056 1165.473,1548.21 1158.662,1548.52C1147.208,1549.139 1136.063,1549.604 1125.227,1549.913L1125.227,1334.907L1127.085,1235.995C1127.085,1231.661 1126.62,1228.875 1125.691,1227.636C1124.453,1226.398 1121.048,1225.779 1115.475,1225.779L1010.062,1227.636L870.285,1227.636L764.407,1225.779C760.073,1225.779 757.287,1226.243 756.048,1227.172C754.81,1228.101 754.191,1231.042 754.191,1235.995L756.048,1334.907L756.048,1549.913C745.832,1549.604 735.616,1549.139 725.4,1548.52C716.112,1548.21 711.004,1548.056 710.075,1548.056C703.883,1548.056 700.788,1551.461 700.788,1558.272L702.645,1670.651L702.645,1919.556L700.788,2045.402C700.788,2051.594 703.883,2054.69 710.075,2054.69L778.803,2054.69C785.614,2054.69 789.019,2051.594 789.019,2045.402L787.162,1921.878L787.162,1633.501L1092.721,1633.501L1092.721,1936.738C1092.721,1953.765 1085.755,1962.279 1071.824,1962.279C1053.249,1962.279 1030.494,1961.35 1003.561,1959.493ZM896.754,1453.787L896.754,1549.913L838.707,1549.913L838.707,1314.01L1042.568,1314.01L1042.568,1377.63L965.482,1377.63L905.577,1375.772C898.457,1375.772 894.897,1378.868 894.897,1385.06L896.754,1453.787ZM971.054,1549.913L971.054,1454.716L1042.568,1454.716L1042.568,1549.913L971.054,1549.913Z"/>
            <path d="M1003.561,1959.493C1030.494,1961.35 1053.249,1962.279 1071.824,1962.279C1085.755,1962.279 1092.721,1953.765 1092.721,1936.738L1092.721,1633.501L787.162,1633.501L787.162,1921.878L789.019,2045.402C789.019,2051.594 785.614,2054.69 778.803,2054.69L710.075,2054.69C703.883,2054.69 700.788,2051.594 700.788,2045.402L702.645,1919.556L702.645,1670.651L700.788,1558.272C700.788,1551.461 703.883,1548.056 710.075,1548.056C711.004,1548.056 716.112,1548.21 725.4,1548.52C735.616,1549.139 745.832,1549.604 756.048,1549.913L756.048,1334.907L754.191,1235.995C754.191,1231.042 754.81,1228.101 756.048,1227.172C757.287,1226.243 760.073,1225.779 764.407,1225.779L870.285,1227.636L1010.062,1227.636L1115.475,1225.779C1121.048,1225.779 1124.453,1226.398 1125.691,1227.636C1126.62,1228.875 1127.085,1231.661 1127.085,1235.995L1125.227,1334.907L1125.227,1549.913C1136.063,1549.604 1147.208,1549.139 1158.662,1548.52C1165.473,1548.21 1169.498,1548.056 1170.736,1548.056C1175.689,1548.056 1178.63,1548.675 1179.559,1549.913C1180.488,1551.152 1180.952,1553.938 1180.952,1558.272L1179.095,1679.01L1179.095,1805.784L1180.952,1958.564C1180.952,1987.974 1173.058,2010.11 1157.269,2024.97C1141.79,2038.901 1109.284,2046.176 1059.75,2046.795C1053.558,2047.105 1049.534,2047.26 1047.676,2047.26C1038.698,2047.26 1033.126,2045.247 1030.959,2041.223C1029.72,2039.056 1027.863,2031.471 1025.386,2018.468C1021.052,1995.869 1013.777,1976.21 1003.561,1959.493ZM896.754,1453.787L894.897,1385.06C894.897,1378.868 898.457,1375.772 905.577,1375.772L965.482,1377.63L1042.568,1377.63L1042.568,1314.01L838.707,1314.01L838.707,1549.913L896.754,1549.913L896.754,1453.787ZM971.054,1549.913L1042.568,1549.913L1042.568,1454.716L971.054,1454.716L971.054,1549.913ZM491.354,1187.7C543.983,1194.82 572.775,1198.845 577.728,1199.774C588.563,1201.941 593.981,1206.12 593.981,1212.312C593.981,1218.194 590.266,1222.993 582.836,1226.708C580.359,1227.946 578.812,1229.184 578.192,1230.423C613.485,1279.337 661.006,1324.072 720.756,1364.627C705.586,1381.964 694.441,1398.991 687.321,1415.709C681.748,1429.021 676.64,1435.677 671.996,1435.677C668.281,1435.677 661.006,1431.188 650.171,1422.21C605.591,1385.679 567.667,1343.266 536.399,1294.971C505.131,1341.718 470.767,1384.286 433.307,1422.674C440.428,1423.293 459.777,1423.603 491.354,1423.603L560.082,1423.603L632.989,1421.745C638.561,1421.745 641.967,1422.365 643.205,1423.603C644.134,1424.841 644.598,1427.937 644.598,1432.89L644.598,1491.866C644.598,1497.129 643.824,1500.225 642.276,1501.154C641.038,1502.082 637.942,1502.547 632.989,1502.547L568.441,1500.689L568.441,1574.525L662.709,1573.596C667.662,1573.596 670.603,1574.061 671.532,1574.989C672.461,1575.918 672.925,1578.704 672.925,1583.348L672.925,1646.968C672.925,1652.231 672.306,1655.326 671.068,1656.255C669.829,1657.184 667.043,1657.648 662.709,1657.648L568.441,1655.326L568.441,1898.195C606.519,1887.979 641.967,1876.524 674.783,1863.831C672.306,1884.264 671.068,1901.446 671.068,1915.377C671.068,1931.166 669.52,1940.763 666.424,1944.168C664.257,1946.335 656.053,1950.05 641.812,1955.313C581.133,1976.984 509.465,1998.5 426.806,2019.861C410.708,2023.886 400.027,2027.756 394.764,2031.471C389.191,2035.805 383.774,2037.972 378.511,2037.972C372.629,2037.972 367.83,2033.793 364.115,2025.434C357.614,2008.097 349.1,1981.163 338.574,1944.633C370.771,1941.227 401.42,1936.429 430.521,1930.237L483.924,1920.021L483.924,1655.326L455.597,1655.326L360.4,1657.648C355.447,1657.648 352.351,1657.029 351.113,1655.791C350.184,1654.553 349.72,1651.611 349.72,1646.968L349.72,1583.348C349.72,1578.395 350.339,1575.454 351.577,1574.525C352.815,1573.906 355.756,1573.596 360.4,1573.596L455.597,1574.525L483.924,1574.525L483.924,1500.689L417.518,1502.547C412.565,1502.547 409.469,1501.928 408.231,1500.689C407.302,1499.451 406.838,1496.51 406.838,1491.866L406.838,1449.144C403.123,1453.168 398.015,1457.812 391.513,1463.075C384.083,1469.576 379.749,1473.601 378.511,1475.149C369.533,1481.96 362.877,1485.365 358.543,1485.365C352.97,1485.365 348.791,1478.399 346.005,1464.468C339.503,1437.844 331.609,1416.947 322.321,1401.777C389.501,1348.219 438.88,1293.578 470.457,1237.853C478.816,1223.302 485.782,1206.585 491.354,1187.7ZM1046.283,1931.166C1046.283,1936.429 1045.741,1939.679 1044.658,1940.918C1043.574,1942.156 1040.556,1942.775 1035.603,1942.775L986.379,1942.775C981.116,1942.775 978.02,1942.001 977.091,1940.453C976.162,1939.215 975.698,1936.119 975.698,1931.166L975.698,1916.306L903.255,1916.306L903.255,1950.205C903.255,1955.468 902.714,1958.719 901.63,1959.957C900.547,1961.195 897.683,1961.814 893.039,1961.814L843.351,1961.814C838.398,1961.814 835.302,1961.041 834.063,1959.493C833.135,1958.254 832.67,1955.158 832.67,1950.205L834.992,1824.824L834.992,1776.529L832.67,1701.3C832.67,1696.037 833.29,1692.941 834.528,1692.012C835.766,1691.083 838.707,1690.619 843.351,1690.619L906.97,1692.477L971.983,1692.477L1035.603,1690.619C1040.865,1690.619 1043.961,1691.238 1044.89,1692.477C1045.819,1693.715 1046.283,1696.656 1046.283,1701.3L1043.961,1762.133L1043.961,1819.251L1046.283,1931.166ZM975.698,1760.275L903.255,1760.275L903.255,1849.436L975.698,1849.436L975.698,1760.275ZM427.735,1699.442C444.762,1747.428 456.99,1796.806 464.42,1847.578C464.73,1849.436 464.885,1851.138 464.885,1852.686C464.885,1857.33 460.86,1861.355 452.811,1864.76L413.803,1881.942C408.54,1883.799 404.98,1884.728 403.123,1884.728C400.027,1884.728 398.169,1881.477 397.55,1874.976C389.501,1822.347 377.737,1773.278 362.258,1727.769C361.329,1724.673 360.865,1722.351 360.865,1720.803C360.865,1717.398 364.425,1713.993 371.545,1710.587L413.803,1693.405C417.209,1691.548 419.84,1690.619 421.698,1690.619C424.174,1690.619 426.187,1693.56 427.735,1699.442ZM578.192,1828.539C590.576,1799.128 601.411,1763.371 610.699,1721.268C612.866,1707.646 614.414,1695.882 615.342,1685.975C637.942,1691.857 659.149,1699.442 678.962,1708.73C685.154,1711.826 688.249,1715.076 688.249,1718.482C688.249,1722.197 686.392,1725.912 682.677,1729.627C678.033,1735.818 674.473,1742.474 671.996,1749.595C662.709,1780.553 653.266,1807.797 643.669,1831.325C638.097,1844.018 633.608,1850.364 630.202,1850.364C626.797,1850.364 621.844,1848.507 615.342,1844.792C602.65,1837.671 590.266,1832.254 578.192,1828.539Z" style="fill:rgb(255,108,0);fill-rule:nonzero;"/>
        </g>
    </g>
</svg>
