<?xml version="1.0" encoding="UTF-8"?>
<svg id="_レイヤー_2" data-name="レイヤー 2" xmlns="http://www.w3.org/2000/svg" viewBox="0 0 986 831">
  <defs>
    <style>
      .cls-1 {
        fill: #fff;
      }
    </style>
  </defs>
  <g id="_企画" data-name="企画">
    <g>
      <g>
        <path class="cls-1" d="M493,830.5c-66.5,0-131-10.98-191.73-32.62-58.65-20.91-111.32-50.84-156.55-88.96-45.22-38.12-80.73-82.5-105.53-131.91C13.52,525.85.5,471.51.5,415.5s13.02-110.35,38.69-161.51c24.8-49.42,60.31-93.8,105.53-131.91,45.23-38.12,97.9-68.05,156.55-88.96C362,11.48,426.5.5,493,.5s131,10.98,191.73,32.62c58.65,20.91,111.32,50.84,156.55,88.96,45.22,38.11,80.73,82.5,105.53,131.91,25.67,51.15,38.69,105.49,38.69,161.51s-13.02,110.35-38.69,161.51c-24.8,49.42-60.3,93.8-105.53,131.91-45.23,38.12-97.9,68.05-156.55,88.96-60.73,21.65-125.23,32.62-191.73,32.62Z"/>
        <path d="M493,1c66.44,0,130.89,10.97,191.56,32.59,58.59,20.89,111.21,50.79,156.4,88.87,45.17,38.07,80.64,82.4,105.4,131.76,25.64,51.08,38.64,105.35,38.64,161.28s-13,110.2-38.64,161.28c-24.77,49.36-60.23,93.68-105.4,131.76-45.18,38.08-97.8,67.98-156.4,88.87-60.67,21.63-125.12,32.59-191.56,32.59s-130.89-10.97-191.56-32.59c-58.59-20.89-111.21-50.79-156.4-88.87-45.17-38.07-80.64-82.4-105.4-131.76C14,525.7,1,471.43,1,415.5s13-110.2,38.64-161.28c24.77-49.36,60.23-93.68,105.4-131.76,45.18-38.08,97.8-67.98,156.4-88.87C362.11,11.97,426.56,1,493,1M493,0C220.72,0,0,186.03,0,415.5s220.72,415.5,493,415.5,493-186.03,493-415.5S765.28,0,493,0h0Z"/>
      </g>
      <path d="M263.98,308.83c15.91-16.69,35.13-30.08,56.26-39.29,5.31-2.32,10.75-4.35,16.28-6.1s11.37-3.53,17.23-4.13,11.54.04,16.38,3.34,8.13,8.43,11.11,13.29c7.22,11.76,12.13,24.83,14.54,38.42.34,1.9,3.23,1.09,2.89-.8-2.22-12.52-6.58-24.65-12.84-35.73-2.93-5.19-6.19-10.51-10.47-14.71s-9.84-6.62-15.93-6.97-12.29,1.07-18.17,2.73-11.33,3.51-16.84,5.69c-11.08,4.39-21.71,9.89-31.68,16.42-11.23,7.36-21.63,16-30.89,25.72-1.33,1.4.79,3.52,2.12,2.12h0Z"/>
      <path d="M494.03,316.79c13.07-9.32,26.9-17.56,41.33-24.61s29.47-12.89,44.88-17.45c7.63-2.26,15.35-4.2,23.13-5.82s15.72-3,23.71-3.31,15.74.44,23.11,3.21c6.43,2.41,12.08,6.46,16.77,11.44,9.31,9.88,14.82,22.78,19.6,35.3.59,1.55,1.18,3.11,1.75,4.67.67,1.79,3.57,1.02,2.89-.8-4.82-12.99-9.98-26.21-18.61-37.21-4.17-5.32-9.24-9.98-15.15-13.31-6.86-3.86-14.59-5.72-22.4-6.22s-16.34.39-24.36,1.77-16.15,3.23-24.09,5.36c-15.84,4.25-31.32,9.85-46.23,16.68-14.93,6.84-29.28,14.93-42.84,24.19-1.69,1.15-3.36,2.32-5.02,3.51-1.56,1.11-.06,3.71,1.51,2.59h0Z"/>
      <path d="M385.32,449.59c-.53,14.5,4.08,28.77,11.94,40.87s19.43,22.69,32.49,29.75c14.51,7.85,30.7,12.02,47.05,13.68,8.26.84,16.58,1.04,24.87.73,7.19-.26,14.38-.9,21.46-2.29,13.05-2.56,26.54-7.9,35-18.64,1.06-1.34,2.03-2.73,2.92-4.19,1.01-1.65-1.59-3.16-2.59-1.51-6.89,11.33-19.2,17.39-31.69,20.47-6.56,1.62-13.27,2.49-20,2.91-7.96.49-15.96.53-23.93.02-15.86-1.02-31.77-4.32-46.22-11.07-13.21-6.17-24.99-15.27-33.73-27.01-8.3-11.14-13.89-24.47-14.55-38.44-.08-1.76-.08-3.52-.02-5.28.07-1.93-2.93-1.93-3,0h0Z"/>
    </g>
  </g>
</svg>